<?xml version="1.0" standalone="no"?><!DOCTYPE svg PUBLIC "-//W3C//DTD SVG 1.1//EN" "http://www.w3.org/Graphics/SVG/1.1/DTD/svg11.dtd"><svg class="icon" style="" viewBox="0 0 1024 1024" version="1.1" xmlns="http://www.w3.org/2000/svg" p-id="2359" xmlns:xlink="http://www.w3.org/1999/xlink" width="128" height="128"><defs><style type="text/css"><![CDATA[

]]></style></defs><path d="M481.664 398.464l-47.018667 185.984c-22.016 87.978667-43.434667 151.637333-64.256 190.976s-45.354667 68.48-73.514667 87.509333-60.245333 28.501333-96.256 28.501333c-22.997333 0-39.850667-4.437333-50.517333-13.269333s-16-19.072-16-30.762667c0-11.008 4.437333-20.48 13.269333-28.501333s20.565333-11.989333 35.242667-11.989333c11.989333 0 21.162667 3.072 27.52 9.258667s9.514667 13.909333 9.514667 23.253333c0 8.661333-2.005333 15.104-6.016 19.242667s-6.016 6.912-6.016 8.234667l2.005333 2.517333C211.328 870.784 213.333333 871.466667 215.68 871.466667c8.021333 0 14.848-2.517333 20.48-7.509333 13.994667-12.672 24.490667-27.989333 31.488-45.994667 4.992-12.330667 14.336-44.842667 27.989333-97.493333l82.005333-321.962667L321.664 398.506667l13.482667-47.018667c20.010667 0.341333 34.602667-2.176 43.733333-7.509333C388.096 338.645333 397.653333 326.656 407.68 307.968c29.653333-54.656 60.842667-93.824 93.482667-117.504s69.162667-35.498667 109.482667-35.498667c25.685333 0 44.330667 4.992 56.021333 15.018667s17.493333 22.997333 17.493333 38.997333c0 13.653333-3.84 24.576-11.52 32.768s-17.322667 12.245333-29.013333 12.245333c-10.666667 0-19.498667-3.328-26.496-9.984s-10.496-14.677333-10.496-24.021333c0-6.656 2.261333-13.738667 6.741333-21.248s6.741333-12.586667 6.741333-15.232c0-2.986667-0.981333-5.418667-2.986667-7.253333s-4.650667-2.730667-8.021333-2.730667c-16 0-32.341333 9.685333-48.981333 29.013333-27.349333 31.658667-49.322667 81.322667-66.005333 148.992l58.496 0-13.994667 47.018667L481.664 398.549333z" p-id="2360"></path><path d="M571.904 422.656l117.077333-20.010667c21.12 33.322667 36.138667 70.016 45.013333 109.994667 21.973333-32.512 38.442667-55.253333 49.578667-68.352 15.018667-17.237333 27.392-28.458667 37.077333-33.749333s20.010667-7.936 30.848-7.936c12.501333 0 22.016 3.328 28.544 9.984s9.770667 15.701333 9.770667 27.093333c0 10.837333-3.242667 19.626667-9.770667 26.453333s-14.805333 10.197333-24.789333 10.197333c-7.210667 0-15.402667-1.322667-24.576-3.968s-15.530667-3.968-19.157333-3.968c-9.472 0-18.474667 3.328-27.093333 9.984-11.648 9.429333-25.941333 29.013333-42.922667 58.752 19.157333 67.242667 34.474667 108.202667 45.824 122.88 6.656 8.618667 13.44 12.928 20.437333 12.928 5.845333 0 10.837333-1.365333 15.018667-4.181333 6.357333-4.693333 16.384-16.512 29.994667-35.413333l12.074667 7.082667c-19.712 31.957333-39.04 54.314667-57.898667 67.072-14.165333 10.282667-28.202667 15.402667-42.069333 15.402667-14.464 0-26.368-3.157333-35.84-9.6-9.472-6.357333-17.834667-16.810667-25.216-31.232-7.381333-14.421333-16.170667-37.632-26.453333-69.589333-26.112 33.322667-46.592 57.728-61.44 73.130667s-27.221333 25.514667-37.077333 30.208c-9.856 4.736-20.352 7.082667-31.445333 7.082667-11.648 0-20.906667-3.370667-27.690667-10.197333-6.784-6.784-10.197333-15.445333-10.197333-26.026667 0-11.392 3.669333-20.821333 11.050667-28.330667s16.768-11.264 28.117333-11.264c6.144 0 12.928 1.834667 20.437333 5.418667 11.392 5.589333 19.456 8.32 24.149333 8.32 6.656 0 12.501333-1.365333 17.493333-4.181333 6.656-3.328 15.104-10.538667 25.429333-21.674667 6.357333-6.912 17.92-21.802667 34.602667-44.544-21.376-79.445333-38.058667-127.104-50.005333-142.933333-7.808-9.984-17.493333-15.018667-29.184-15.018667-5.845333 0-13.226667 0.981333-22.101333 2.901333L571.904 422.656z" p-id="2361"></path></svg>